<?xml version="1.0" encoding="iso-8859-1"?>
<!-- Generator: Adobe Illustrator 19.0.0, SVG Export Plug-In . SVG Version: 6.00 Build 0)  -->
<svg version="1.1" id="Layer_1" xmlns="http://www.w3.org/2000/svg" xmlns:xlink="http://www.w3.org/1999/xlink" x="0px" y="0px"
	 viewBox="0 0 504 504" style="enable-background:new 0 0 504 504;" xml:space="preserve">
<circle style="fill:#FFD05B;" cx="252" cy="252" r="252"/>
<path style="fill:#324A5E;" d="M354,409.6H150c-7.2,0-12.8-5.6-12.8-12.8V107.2c0-7.2,5.6-12.8,12.8-12.8h204.4
	c7.2,0,12.8,5.6,12.8,12.8v289.6C366.8,403.6,361.2,409.6,354,409.6z"/>
<rect x="160.4" y="117.6" style="fill:#E6E9EE;" width="183.6" height="230.4"/>
<circle style="fill:#F9B54C;" cx="252" cy="380.4" r="18.4"/>
<path style="fill:#FF7058;" d="M252,180c12.4-15.2,29.2-18.4,41.6-14c30,11.2,37.2,53.6,11.2,80.4C252,301.6,252,301.6,252,301.6
	s0,0-53.2-55.2C173.2,219.6,180,177.2,210,166C222.8,161.2,239.6,164.8,252,180z"/>
<path style="fill:#2C9984;" d="M188.8,391.2h-18c-6,0-10.8-4.8-10.8-10.8l0,0c0-6,4.8-10.8,10.8-10.8h18c6,0,10.8,4.8,10.8,10.8l0,0
	C199.2,386.4,194.8,391.2,188.8,391.2z"/>
<path style="fill:#F1543F;" d="M333.2,391.2h-18c-6,0-10.8-4.8-10.8-10.8l0,0c0-6,4.8-10.8,10.8-10.8h18c6,0,10.8,4.8,10.8,10.8l0,0
	C343.6,386.4,338.8,391.2,333.2,391.2z"/>
<g>
</g>
<g>
</g>
<g>
</g>
<g>
</g>
<g>
</g>
<g>
</g>
<g>
</g>
<g>
</g>
<g>
</g>
<g>
</g>
<g>
</g>
<g>
</g>
<g>
</g>
<g>
</g>
<g>
</g>
</svg>
